<svg width="158" height="35" viewBox="0 0 158 35" fill="none" xmlns="http://www.w3.org/2000/svg"><path d="M3.734 9.53c.371 0 .713.098 1.025.293.313.176.547.45.703.82l4.306 9.841-.644.293 4.393-10.105c.332-.78.85-1.152 1.552-1.112.488 0 .879.156 1.172.468.312.293.468.664.468 1.113 0 .137-.029.283-.087.44-.04.156-.088.302-.147.439l-5.477 12.067c-.312.703-.81 1.074-1.494 1.113a1.65 1.65 0 01-1.083-.205c-.332-.195-.586-.498-.762-.908L2.211 12.02c-.039-.098-.088-.225-.146-.38a2.317 2.317 0 01-.059-.557c0-.352.156-.694.469-1.026.312-.351.732-.527 1.26-.527zM21.91 23.413c0 .508-.166.938-.498 1.29-.332.331-.752.497-1.26.497-.507 0-.927-.166-1.259-.498a1.807 1.807 0 01-.498-1.289V11.317c0-.508.166-.928.498-1.26.332-.351.752-.527 1.26-.527.507 0 .927.176 1.26.527.331.332.497.752.497 1.26v12.096zM20.122 7.626c-.663 0-1.132-.107-1.405-.322-.274-.215-.41-.595-.41-1.142v-.556c0-.567.146-.948.439-1.143.312-.215.78-.322 1.406-.322.683 0 1.161.107 1.435.322.273.215.41.596.41 1.143v.556c0 .566-.147.957-.44 1.172-.292.195-.77.292-1.435.292zM26.4 25.2c-.508 0-.928-.166-1.26-.498a1.807 1.807 0 01-.498-1.289V11.317c0-.508.166-.928.498-1.26.332-.351.752-.527 1.26-.527s.927.176 1.26.527c.331.332.497.752.497 1.26v2.753l-.205-1.962c.215-.469.488-.879.82-1.23a4.726 4.726 0 011.172-.908c.43-.254.888-.44 1.376-.557a6.256 6.256 0 011.465-.176c.586 0 1.074.166 1.464.498.41.332.615.723.615 1.172 0 .644-.165 1.113-.497 1.406-.332.273-.694.41-1.084.41a2.53 2.53 0 01-1.025-.205 2.401 2.401 0 00-1.025-.205c-.352 0-.713.088-1.084.263-.352.156-.684.41-.996.762-.293.351-.537.79-.732 1.318-.176.508-.264 1.113-.264 1.816v6.941c0 .508-.166.938-.498 1.29-.332.331-.752.497-1.26.497zM36.64 9.823h6.94c.47 0 .86.156 1.172.469.313.312.469.703.469 1.171 0 .45-.156.83-.469 1.143-.312.293-.703.439-1.171.439h-6.942c-.469 0-.859-.156-1.171-.469-.313-.312-.469-.703-.469-1.171 0-.45.156-.82.469-1.113.312-.313.702-.469 1.171-.469zm3.133-3.661c.508 0 .918.176 1.23.527.332.332.498.752.498 1.26v13.033c0 .274.049.498.147.674.117.176.263.303.439.38.195.079.4.118.615.118.234 0 .45-.04.644-.117.196-.098.42-.147.674-.147.273 0 .517.127.732.381.235.254.352.605.352 1.055 0 .546-.303.995-.908 1.347a3.635 3.635 0 01-1.904.527c-.41 0-.869-.03-1.377-.088a4.183 4.183 0 01-1.405-.498c-.43-.273-.791-.683-1.084-1.23-.293-.547-.44-1.298-.44-2.255V7.949c0-.508.166-.928.498-1.26a1.753 1.753 0 011.29-.527zM59.197 9.53c.508 0 .928.176 1.26.527.331.332.498.752.498 1.26v7.44c0 2.07-.576 3.71-1.729 4.92-1.152 1.21-2.811 1.816-4.979 1.816-2.167 0-3.827-.605-4.979-1.816-1.132-1.21-1.699-2.85-1.699-4.92v-7.44c0-.508.166-.928.498-1.26.332-.351.752-.527 1.26-.527.507 0 .927.176 1.26.527.331.332.497.752.497 1.26v7.44c0 1.19.264 2.079.79 2.665.528.566 1.319.85 2.373.85 1.074 0 1.875-.284 2.402-.85.527-.586.79-1.475.79-2.666v-7.44c0-.507.167-.927.499-1.259.332-.351.751-.527 1.26-.527zm17.513-.293c.507 0 .927.166 1.259.498.332.332.498.762.498 1.289v12.39c0 .507-.166.937-.498 1.288-.332.332-.752.498-1.26.498-.507 0-.927-.166-1.259-.498a1.807 1.807 0 01-.498-1.289v-1.435l.645.264c0 .254-.137.566-.41.937-.274.352-.645.703-1.114 1.054a7.108 7.108 0 01-1.669.908 5.795 5.795 0 01-2.05.352c-1.347 0-2.568-.342-3.661-1.025-1.094-.703-1.963-1.66-2.607-2.87-.625-1.23-.937-2.637-.937-4.218 0-1.601.312-3.007.937-4.218.644-1.23 1.503-2.187 2.577-2.87a6.386 6.386 0 013.574-1.055c.84 0 1.61.127 2.314.381a6.67 6.67 0 011.815.967c.528.39.928.79 1.201 1.2.293.391.44.723.44.996l-1.055.381v-2.138c0-.508.166-.927.498-1.26.332-.35.752-.527 1.26-.527zm-5.917 13.034c.86 0 1.611-.215 2.255-.644a4.246 4.246 0 001.494-1.758c.371-.742.557-1.572.557-2.49 0-.937-.186-1.776-.557-2.518a4.246 4.246 0 00-1.494-1.758c-.644-.429-1.396-.644-2.255-.644-.84 0-1.582.215-2.226.645-.644.43-1.152 1.015-1.523 1.757-.351.742-.527 1.581-.527 2.519 0 .918.176 1.747.527 2.49.371.741.879 1.327 1.523 1.757.645.43 1.387.644 2.226.644zm14.408 1.142c0 .508-.175.938-.527 1.29-.332.331-.752.497-1.26.497-.487 0-.898-.166-1.23-.498a1.807 1.807 0 01-.497-1.289v-18.1c0-.508.166-.928.498-1.26a1.753 1.753 0 011.288-.527c.508 0 .918.176 1.23.527.332.332.498.752.498 1.26v18.1zm9.63-.644c-.195-.273-.282-.625-.263-1.054.02-.43.274-.801.762-1.113.312-.196.644-.274.996-.235.351.02.693.195 1.025.527a6.91 6.91 0 001.786 1.319c.625.312 1.406.468 2.343.468.293-.02.616-.059.967-.117.351-.078.654-.234.908-.469.273-.253.41-.634.41-1.142 0-.43-.146-.771-.439-1.025-.293-.254-.684-.469-1.172-.644a17.036 17.036 0 00-1.582-.498 50.495 50.495 0 01-1.874-.586 8.285 8.285 0 01-1.728-.82 4.15 4.15 0 01-1.289-1.377c-.332-.566-.498-1.279-.498-2.138 0-.976.274-1.806.82-2.49.547-.683 1.25-1.21 2.11-1.581a7.008 7.008 0 012.752-.557c.606 0 1.24.078 1.904.235a6.782 6.782 0 011.904.703 4.546 4.546 0 011.523 1.26c.215.292.342.643.381 1.053.039.41-.147.782-.557 1.114a1.467 1.467 0 01-1.025.322c-.39-.04-.713-.176-.966-.41-.332-.43-.781-.772-1.348-1.025-.546-.254-1.181-.381-1.903-.381-.293 0-.616.039-.967.117a1.71 1.71 0 00-.879.44c-.254.214-.38.566-.38 1.054 0 .449.146.81.439 1.083.293.254.683.469 1.171.645a57.89 57.89 0 001.611.468c.586.157 1.182.342 1.787.557a7.06 7.06 0 011.669.85c.508.35.918.81 1.231 1.376.312.546.468 1.25.468 2.109 0 .995-.293 1.845-.878 2.548a5.693 5.693 0 01-2.197 1.61 7.2 7.2 0 01-2.695.528c-1.152 0-2.304-.195-3.456-.586-1.152-.41-2.109-1.123-2.87-2.138zm29.361-5.39c0 1.602-.361 3.018-1.084 4.248a7.564 7.564 0 01-2.87 2.84c-1.191.684-2.529 1.026-4.013 1.026s-2.831-.342-4.042-1.025a7.848 7.848 0 01-2.87-2.841c-.703-1.23-1.054-2.646-1.054-4.247s.351-3.007 1.054-4.218c.722-1.23 1.679-2.187 2.87-2.87 1.211-.703 2.558-1.055 4.042-1.055s2.822.352 4.013 1.055a7.504 7.504 0 012.87 2.87c.723 1.21 1.084 2.617 1.084 4.218zm-3.515 0c0-.995-.205-1.854-.615-2.577a4.297 4.297 0 00-1.611-1.728 4.152 4.152 0 00-2.226-.615 4.3 4.3 0 00-2.255.615c-.664.41-1.201.986-1.611 1.728-.39.723-.586 1.582-.586 2.578 0 .976.196 1.835.586 2.577a4.65 4.65 0 001.611 1.699 4.3 4.3 0 002.255.615c.82 0 1.562-.205 2.226-.615a4.346 4.346 0 001.611-1.699c.41-.742.615-1.6.615-2.577zm17.34-7.849c.508 0 .928.176 1.26.527.332.332.497.752.497 1.26v7.44c0 2.07-.576 3.71-1.728 4.92-1.152 1.21-2.811 1.816-4.979 1.816-2.167 0-3.827-.605-4.979-1.816-1.132-1.21-1.699-2.85-1.699-4.92v-7.44c0-.508.166-.928.498-1.26.332-.351.752-.527 1.26-.527.507 0 .927.176 1.259.527.332.332.498.752.498 1.26v7.44c0 1.19.264 2.079.791 2.665.527.566 1.318.85 2.372.85 1.074 0 1.875-.284 2.402-.85.527-.586.791-1.475.791-2.666v-7.44c0-.507.166-.927.498-1.259.332-.351.751-.527 1.259-.527zm6.734 15.67c-.508 0-.927-.166-1.259-.498a1.807 1.807 0 01-.498-1.289v-18.1c0-.508.166-.928.498-1.26.332-.351.751-.527 1.259-.527.508 0 .928.176 1.26.527.332.332.497.752.497 1.26v18.1c0 .508-.165.938-.497 1.29-.332.331-.752.497-1.26.497zm9.314-15.67c.449 0 .84.186 1.172.557.332.37.498.732.498 1.083 0 .47-.235.908-.703 1.319l-8.816 8.113-.147-4.042 6.707-6.473c.371-.371.801-.557 1.289-.557zm.439 15.64c-.507 0-.937-.195-1.288-.585l-5.419-5.74 2.666-2.461 5.272 5.74c.371.391.556.83.556 1.319 0 .507-.205.927-.615 1.26-.391.312-.781.468-1.172.468z" fill="#fff"/><path d="M14.091 34.2L5 33.253c10.055-7.982 27.565-5.8 35.063-3.712 0 0-14.468-2.677-25.972 4.659z" fill="#FD7CCF"/></svg>