<svg width="115" height="114" viewBox="0 0 115 114" fill="none" xmlns="http://www.w3.org/2000/svg"><path d="M5.454 102.826L24.26 13.34 84.37 28.471l28.948 2.316-19.832 78.131-63-29.122-25.033 23.029z" fill="#000" fill-opacity=".5"/><path d="M3.452 89.521L25.354.743l59.543 17.241 28.847 3.334-22.533 77.393-61.943-31.325L3.452 89.521z" fill="#D4E74D"/><path d="M39.917 55.262c-2.319-.473-4.077-1.279-5.276-2.417-1.164-1.162-1.886-2.591-2.166-4.288-.274-1.725-.201-3.618.22-5.679l.253-1.245 6.611 1.348-.096.473-.14.687c-.199 1.122-.303 2.07-.312 2.843.026.75.202 1.352.526 1.806.325.454.86.757 1.604.908.773.158 1.383.089 1.83-.208.455-.324.829-.844 1.124-1.56.295-.714.553-1.615.775-2.703.356-1.746.373-3.143.05-4.193-.317-1.078-1.245-1.79-2.784-2.133l-.43-.088-.73-.148.999-4.895.515.106.515.105c1.545.315 2.675.113 3.388-.606.742-.714 1.293-1.957 1.655-3.732.28-1.374.299-2.488.056-3.342-.243-.855-.909-1.393-1.996-1.615-1.088-.221-1.89.062-2.41.85-.518.79-.929 1.853-1.232 3.192l-.157.773-.158.773-6.611-1.349.385-1.888c.414-2.032 1.137-3.674 2.167-4.924 1.036-1.28 2.317-2.151 3.842-2.615 1.526-.464 3.276-.495 5.25-.092 1.976.403 3.591 1.105 4.848 2.106 1.256 1.002 2.102 2.262 2.537 3.782.464 1.526.49 3.305.075 5.337-.415 2.032-1.188 3.633-2.321 4.803-1.105 1.176-2.31 1.824-3.617 1.945a5.875 5.875 0 011.987 1.881c.524.793.858 1.785 1.002 2.977.15 1.163.06 2.56-.273 4.192-.426 2.09-1.106 3.889-2.04 5.397-.928 1.48-2.172 2.538-3.733 3.174-1.56.636-3.471.723-5.732.262zm22.404 4.57c-2.09-.427-3.734-1.21-4.932-2.348a8.193 8.193 0 01-2.373-4.151c-.378-1.657-.365-3.473.038-5.448l3.178-15.584c.414-2.032 1.105-3.74 2.073-5.122.973-1.411 2.234-2.406 3.783-2.984 1.55-.579 3.397-.65 5.544-.211 2.117.432 3.761 1.214 4.931 2.347 1.2 1.139 1.97 2.548 2.313 4.228.35 1.651.316 3.493-.098 5.525L73.6 51.668c-.403 1.974-1.103 3.65-2.099 5.027a8.192 8.192 0 01-3.809 2.89c-1.549.578-3.34.66-5.371.246zm1.19-5.84c.773.158 1.38.029 1.824-.388.442-.416.788-.942 1.037-1.577.254-.664.44-1.282.557-1.854l3.125-15.326c.129-.63.206-1.3.231-2.01.055-.705-.04-1.335-.285-1.892-.238-.585-.758-.96-1.56-1.123-.8-.163-1.44-.025-1.917.414-.443.417-.791.957-1.046 1.62-.226.67-.403 1.32-.531 1.949L61.82 49.13a11.803 11.803 0 00-.214 1.924 3.95 3.95 0 00.38 1.866c.273.563.781.92 1.526 1.071zM85.077 42.493l6.704-12.697 1.517.309-6.687 12.7-1.534-.312zm-.376-6.415c-1.034-.21-1.714-.65-2.04-1.319-.327-.668-.38-1.542-.16-2.62l.17-.833c.224-1.1.608-1.879 1.153-2.335.544-.456 1.344-.576 2.4-.36 1.056.214 1.746.633 2.07 1.255.338.613.395 1.47.171 2.57l-.187.916c-.22 1.079-.61 1.856-1.17 2.332-.56.476-1.362.607-2.407.394zm.313-1.533c.289.059.516.024.68-.105.166-.128.299-.326.4-.595a6.53 6.53 0 00.264-.953l.16-.784c.113-.556.15-.994.111-1.314-.036-.332-.277-.543-.721-.634-.434-.088-.732.013-.896.304-.16.28-.298.697-.411 1.253l-.164.8a6.188 6.188 0 00-.127.964c-.012.287.033.522.134.704.102.183.292.303.57.36zm7.12 9.44c-1.033-.212-1.713-.651-2.04-1.32-.315-.666-.362-1.544-.14-2.633l.167-.817c.224-1.1.603-1.88 1.136-2.338.547-.467 1.349-.593 2.404-.378 1.067.218 1.763.638 2.088 1.26.324.621.374 1.482.15 2.583l-.184.9c-.222 1.089-.613 1.871-1.173 2.348-.56.476-1.362.607-2.407.394zm.317-1.551c.289.059.516.024.681-.104.176-.127.31-.325.4-.596.1-.269.187-.581.26-.937l.163-.8c.113-.556.15-.994.112-1.314-.037-.332-.277-.543-.722-.633-.433-.089-.732.012-.895.303-.164.29-.301.709-.412 1.253l-.163.8a6.312 6.312 0 00-.13.98c-.01.276.035.506.137.689.101.182.291.302.569.359zM51.132 72.883c-.956-.195-1.681-.528-2.175-1-.495-.47-.796-1.064-.905-1.78-.108-.718-.07-1.532.116-2.443l1.03-5.05c.186-.912.467-1.665.843-2.26.378-.606.886-1.023 1.523-1.252.637-.229 1.434-.246 2.39-.051.977.2 1.709.528 2.194.986.497.46.8 1.043.911 1.748.124.697.094 1.501-.092 2.412l-1.034 5.068c-.183.9-.471 1.658-.863 2.272a3.1 3.1 0 01-1.53 1.286c-.627.242-1.43.264-2.408.064zm.37-1.817c.411.084.73.056.955-.083.236-.137.42-.354.55-.652.13-.297.232-.63.307-.996l1.268-6.218c.077-.378.113-.724.107-1.038-.005-.313-.091-.574-.257-.781-.153-.217-.435-.367-.846-.45-.389-.08-.701-.051-.938.086-.234.126-.415.332-.543.618-.128.287-.23.62-.307.997l-1.268 6.218a5.914 5.914 0 00-.124 1.034c.003.325.087.596.25.815.164.218.446.368.846.45zm5.393 2.802l2.753-13.503 5.551 1.132-.346 1.7-3.084-.629-.802 3.934 2.517.514-.35 1.717-2.518-.514-1.254 6.152-2.467-.503zm6.886 1.404l2.754-13.503 5.55 1.132-.346 1.7-3.084-.628-.802 3.934 2.517.513-.35 1.717-2.518-.513-1.254 6.151-2.467-.503z" fill="#5A3DF1"/></svg>