<svg width="169" height="82" viewBox="0 0 169 82" fill="none" xmlns="http://www.w3.org/2000/svg"><path d="M5.956 25.412l154.815-20.1-2.795 26.59L168.2 61.7 13.385 81.8l4.404-21.554L5.956 25.411z" fill="#000" fill-opacity=".5"/><path d="M.2 20.9L155.015.8l-2.796 26.591 10.224 29.797-154.815 20.1 4.404-21.554L.2 20.9z" fill="#D4E74D"/><path d="M41.125 66.973c-2.566.333-4.77.155-6.611-.532-1.842-.688-3.326-1.92-4.453-3.696-1.13-1.81-1.947-4.227-2.449-7.252l7.595-2.17c.265 1.75.603 3.149 1.016 4.194.446 1.04.953 1.764 1.522 2.17.602.403 1.275.556 2.017.46.946-.123 1.511-.523 1.697-1.199.22-.68.282-1.376.189-2.084-.223-1.688-.815-3.053-1.776-4.095-.966-1.076-2.218-2.115-3.758-3.117l-3.952-2.628a20.803 20.803 0 01-4.537-3.942c-1.268-1.552-2.065-3.56-2.39-6.023-.458-3.476.223-6.26 2.042-8.35 1.815-2.123 4.495-3.415 8.04-3.875 2.194-.285 3.998-.142 5.413.43 1.448.567 2.59 1.414 3.425 2.541a11.123 11.123 0 011.918 3.613c.443 1.282.762 2.528.956 3.738l-7.672 1.974c-.194-1.21-.416-2.245-.667-3.105-.221-.899-.548-1.56-.982-1.984-.438-.458-1.045-.637-1.822-.536-.844.11-1.422.545-1.733 1.307-.278.757-.37 1.49-.277 2.198.2 1.519.719 2.722 1.557 3.608.867.849 1.96 1.72 3.28 2.613l3.786 2.546a22.797 22.797 0 015.187 4.579c1.503 1.761 2.44 4.06 2.814 6.895.254 1.924.046 3.736-.623 5.436-.673 1.667-1.76 3.06-3.26 4.182-1.467 1.118-3.297 1.819-5.492 2.104zm16.725-2.79l2.346-42.013 10.33-1.342 13.049 40.015-8.356 1.085-2.507-8.48-6.026.783-.278 8.841-8.558 1.111zm8.932-15.474l4.355-.566-4.285-15.715-.07 16.28zm28.723 10.585L82.71 19.247l7.748-1.006 8.073 27.272.434-28.377 8.203-1.065-2.092 41.98-9.57 1.243zm25.237-3.276L115.34 15.01l18.433-2.393.813 6.176-9.368 1.217 1.341 10.175 7.14-.926.827 6.277-7.14.927L129 48.715l9.469-1.23.807 6.126-18.534 2.407z" fill="#5A3DF1"/></svg>