<svg width="192" height="58" viewBox="0 0 192 58" fill="none" xmlns="http://www.w3.org/2000/svg"><path d="M190.134.087L.2 3.827l8.085 24.207-7.02 29.053 189.935-3.74-9.127-19.313L190.134.087z" fill="#FD7CCF"/><path d="M25.354 45.158l1.325-31.774-5.782-.237.238-5.689 19.148.785-.237 5.69-5.69-.234-1.324 31.774-7.678-.315zm30.581 1.764c-2.744-.112-4.897-.695-6.46-1.747-1.562-1.053-2.66-2.503-3.293-4.351-.601-1.878-.848-4.097-.742-6.656l.583-13.968c.106-2.559.537-4.734 1.29-6.526.786-1.79 2-3.13 3.643-4.02 1.643-.89 3.837-1.279 6.582-1.166 2.775.114 4.943.697 6.506 1.75 1.594 1.022 2.693 2.457 3.295 4.304.635 1.817.899 4.006.792 6.565l-.582 13.968c-.107 2.559-.553 4.749-1.34 6.57-.754 1.791-1.969 3.147-3.644 4.066-1.645.921-3.854 1.325-6.63 1.211zm.23-5.504c.987.04 1.72-.145 2.2-.558.482-.444.816-1.032 1-1.766.187-.764.298-1.578.334-2.442l.739-17.714a11.801 11.801 0 00-.131-2.414c-.123-.747-.407-1.345-.852-1.796-.443-.481-1.158-.742-2.145-.783-.925-.038-1.628.165-2.11.609-.48.412-.814.986-.998 1.72a11.807 11.807 0 00-.332 2.395l-.738 17.714c-.036.863-.009 1.683.082 2.459.124.746.407 1.36.85 1.842.445.45 1.145.695 2.1.734zm19.688 5.811l1.562-37.463 9.158.376c3.176.13 5.625.648 7.348 1.552 1.755.875 2.966 2.206 3.632 3.994.669 1.757.946 3.993.833 6.706l-.569 13.644c-.115 2.775-.58 5.042-1.395 6.8-.815 1.758-2.119 3.032-3.912 3.824-1.762.761-4.2 1.078-7.314.95l-9.343-.383zm7.853-5.005l1.62.066c1.418.058 2.429-.117 3.033-.524.636-.438 1.049-1.085 1.239-1.942.191-.888.314-1.979.368-3.274l.644-15.448c.054-1.295-.011-2.332-.195-3.112-.151-.81-.528-1.411-1.13-1.807-.57-.394-1.533-.619-2.89-.674l-1.572-.065-1.117 26.78zm20.014 6.148l8.823-37.165 8.464.347 5.654 37.759-7.077-.29-.998-8.288-5.92-.243-1.777 8.174-7.169-.294zm9.834-12.523l4.487.184-1.636-15.216-2.851 15.032zm23.519 13.891l.619-14.846-6.365-22.917 7.169.294 3.474 13.347 4.296-13.028 6.938.284-8.158 22.321-.619 14.847-7.354-.302zm23.336-8.263l-.861-28.25 6.984.287-3.672 28.064-2.451-.1zm-2.512 9.117l.276-6.614 6.66.273-.275 6.614-6.661-.273z" fill="#fff"/></svg>