<svg width="279" height="109" viewBox="0 0 279 109" fill="none" xmlns="http://www.w3.org/2000/svg"><path d="M7.908 62.05a5.479 5.479 0 00-5.566 2.424 5.442 5.442 0 00.116 6.057 5.478 5.478 0 008.424.666 5.447 5.447 0 001.442-2.82l-5.38-.961.964-5.367z" fill="#D4E74D"/><path d="M30.47 13.176l1.58 4.261 4.272 1.577-4.272 1.577-1.58 4.26-1.581-4.26-4.272-1.577 4.272-1.577 1.58-4.261z" fill="#fff"/><path d="M249.444 2.062l3.203 4.011 5.139.186-4.022 3.196-.186 5.125-3.204-4.012-5.138-.185 4.022-3.196.186-5.125zM265.985 72.194l.757 14.491 14.527.755-14.527.754-.757 14.491-.756-14.49-14.528-.755 14.528-.755.756-14.49z" fill="#FD7CCF"/><path d="M264.087 86.338c.845-1.46 2.952-1.46 3.796 0 .847 1.462-.208 3.292-1.898 3.292-1.689 0-2.744-1.83-1.898-3.292z" fill="#FD7CCF"/><path d="M276.792 76.66l-9.737 10.78 9.737 10.78-10.807-9.713-10.808 9.713 9.738-10.78-9.738-10.78 10.808 9.712 10.807-9.713z" fill="#FD7CCF"/><path d="M265.416 85.324c1.633-.437 3.128 1.054 2.69 2.683-.437 1.628-2.479 2.174-3.674.981-1.195-1.192-.648-3.228.984-3.664z" fill="#FD7CCF"/></svg>