<svg width="147" height="25" viewBox="0 0 147 25" fill="none" xmlns="http://www.w3.org/2000/svg"><path d="M0 12.58C0 5.71 5.722.221 12.586.457c46.01 1.586 76.319 1.544 121.828-.006C141.28.218 147 5.709 147 12.579c0 6.81-5.625 12.279-12.433 12.124-46.396-1.05-76.744-1.055-122.135-.006C5.626 24.854 0 19.387 0 12.579z" fill="#FD7CCF"/><path d="M10.843 20L7.766 6.23h1.802l2.176 10.149L13.818 6.23h1.75L12.527 20h-1.683zm6.968 0V6.23h1.887V20H17.81zm4.795 0V6.23h2.77c.919 0 1.678.125 2.279.374.6.238 1.042.629 1.326 1.173.294.533.442 1.235.442 2.108 0 .533-.057 1.02-.17 1.462-.114.43-.295.799-.544 1.105-.25.295-.578.51-.986.646L29.678 20h-1.853l-1.802-6.46h-1.496V20h-1.921zm1.92-7.837h.732c.544 0 .986-.068 1.326-.204.34-.136.589-.368.748-.697.158-.329.238-.788.238-1.377 0-.805-.148-1.383-.442-1.734-.295-.363-.879-.544-1.751-.544h-.85v4.556zM33.383 20V7.658h-2.33V6.23h6.512v1.428h-2.261V20h-1.921zm9.742.153c-.997 0-1.762-.198-2.295-.595-.533-.397-.895-.952-1.088-1.666-.193-.725-.289-1.57-.289-2.533V6.23h1.836v9.214c0 .59.04 1.128.119 1.615.08.487.25.873.51 1.156.272.283.674.425 1.207.425.544 0 .946-.142 1.207-.425.26-.283.43-.669.51-1.156.08-.487.119-1.026.119-1.615V6.23h1.819v9.129c0 .963-.096 1.808-.289 2.533-.193.714-.555 1.27-1.088 1.666-.521.397-1.28.595-2.278.595zm5.56-.153l2.924-13.77h1.853L56.4 20h-1.818l-.63-3.468H51.15L50.486 20h-1.802zm2.72-4.845h2.295L52.543 8.95l-1.14 6.205zM58.479 20V6.23h1.92v12.393h3.52V20h-5.44zm10.634.153c-.793 0-1.456-.17-1.99-.51a3.233 3.233 0 01-1.19-1.411c-.271-.6-.43-1.298-.475-2.091l1.7-.459c.034.487.108.958.22 1.411.126.453.324.827.596 1.122.272.283.652.425 1.139.425.499 0 .873-.136 1.122-.408.26-.283.39-.686.39-1.207 0-.623-.14-1.122-.424-1.496a7.659 7.659 0 00-1.071-1.156l-2.312-2.04c-.453-.397-.788-.827-1.003-1.292-.215-.476-.323-1.06-.323-1.751 0-1.009.289-1.79.867-2.346.578-.555 1.366-.833 2.363-.833.544 0 1.02.074 1.428.221.42.136.765.351 1.037.646.283.295.504.669.663 1.122.17.442.283.963.34 1.564l-1.632.442a6.598 6.598 0 00-.204-1.241c-.102-.385-.283-.691-.544-.918-.25-.238-.612-.357-1.088-.357-.476 0-.85.13-1.122.391-.26.25-.391.623-.391 1.122 0 .42.068.765.204 1.037.147.272.38.55.697.833l2.329 2.04c.521.453.98.997 1.377 1.632.397.623.595 1.366.595 2.227 0 .68-.142 1.27-.425 1.768a2.868 2.868 0 01-1.173 1.122c-.487.26-1.054.391-1.7.391zm8.987 0c-.93 0-1.672-.181-2.227-.544-.555-.363-.952-.878-1.19-1.547-.238-.68-.357-1.473-.357-2.38v-5.219c0-.907.12-1.683.357-2.329.25-.657.646-1.156 1.19-1.496.555-.351 1.298-.527 2.227-.527.93 0 1.666.176 2.21.527.544.351.935.85 1.173 1.496.25.646.374 1.422.374 2.329v5.236c0 .895-.125 1.677-.374 2.346-.238.669-.629 1.19-1.173 1.564-.544.363-1.28.544-2.21.544zm0-1.513c.51 0 .895-.102 1.156-.306.26-.215.436-.51.527-.884a5.91 5.91 0 00.136-1.343v-6.035c0-.51-.045-.946-.136-1.309-.09-.374-.266-.657-.527-.85-.26-.204-.646-.306-1.156-.306-.51 0-.9.102-1.173.306-.26.193-.436.476-.527.85-.09.363-.136.799-.136 1.309v6.035c0 .51.045.958.136 1.343.09.374.266.669.527.884.272.204.663.306 1.173.306zm9.878 1.513c-.997 0-1.762-.198-2.295-.595-.533-.397-.895-.952-1.088-1.666-.192-.725-.289-1.57-.289-2.533V6.23h1.836v9.214c0 .59.04 1.128.12 1.615.079.487.248.873.51 1.156.271.283.673.425 1.206.425.544 0 .947-.142 1.207-.425.26-.283.43-.669.51-1.156.08-.487.12-1.026.12-1.615V6.23h1.818v9.129c0 .963-.096 1.808-.289 2.533-.192.714-.555 1.27-1.088 1.666-.521.397-1.28.595-2.278.595zM94.336 20V6.23h1.92v6.494L99.42 6.23h1.785l-2.72 6.069L101.646 20h-1.87l-2.635-6.46-.884 1.598V20h-1.921zm8.859 0v-2.023h1.819V20h-1.819zm7.456.153c-.974 0-1.734-.204-2.278-.612-.532-.408-.906-.958-1.122-1.649-.204-.691-.306-1.462-.306-2.312v-4.862c0-.93.102-1.74.306-2.431.216-.691.59-1.224 1.122-1.598.544-.385 1.304-.578 2.278-.578.862 0 1.542.159 2.04.476a2.6 2.6 0 011.088 1.36c.227.59.34 1.298.34 2.125v1.088H112.3v-.969c0-.51-.028-.958-.085-1.343-.045-.397-.181-.703-.408-.918-.226-.215-.606-.323-1.139-.323-.544 0-.94.119-1.19.357-.249.227-.413.555-.493.986-.068.42-.102.912-.102 1.479v5.457c0 .691.057 1.241.17 1.649.114.397.301.68.561.85.261.17.612.255 1.054.255.522 0 .896-.113 1.122-.34.227-.238.369-.561.425-.969.057-.408.085-.884.085-1.428v-1.02h1.819v1.02c0 .839-.102 1.581-.306 2.227-.204.635-.555 1.133-1.054 1.496-.498.351-1.201.527-2.108.527zm9.498 0c-.93 0-1.672-.181-2.227-.544-.556-.363-.952-.878-1.19-1.547-.238-.68-.357-1.473-.357-2.38v-5.219c0-.907.119-1.683.357-2.329.249-.657.646-1.156 1.19-1.496.555-.351 1.297-.527 2.227-.527.929 0 1.666.176 2.21.527.544.351.935.85 1.173 1.496.249.646.374 1.422.374 2.329v5.236c0 .895-.125 1.677-.374 2.346-.238.669-.629 1.19-1.173 1.564-.544.363-1.281.544-2.21.544zm0-1.513c.51 0 .895-.102 1.156-.306.26-.215.436-.51.527-.884.09-.385.136-.833.136-1.343v-6.035c0-.51-.046-.946-.136-1.309-.091-.374-.267-.657-.527-.85-.261-.204-.646-.306-1.156-.306-.51 0-.901.102-1.173.306-.261.193-.437.476-.527.85a5.447 5.447 0 00-.136 1.309v6.035c0 .51.045.958.136 1.343.09.374.266.669.527.884.272.204.663.306 1.173.306zM126.44 20l.255-13.77h1.887l2.431 11.169 2.448-11.169h1.87l.255 13.77h-1.547l-.153-9.996L131.557 20h-1.088l-2.312-9.996-.153 9.996h-1.564z" fill="#fff"/></svg>