<svg width="90" height="107" viewBox="0 0 90 107" fill="none" xmlns="http://www.w3.org/2000/svg"><path d="M4.032 89.976l16.456-78.3 52.828 13.288 25.436 2.049-17.367 68.36L26.01 69.842 4.032 89.976z" fill="#000" fill-opacity=".5"/><path d="M2.263 78.331L21.441.653l52.33 15.133 25.347 2.94-19.74 67.712-54.45-27.46L2.264 78.332z" fill="#D4E74D"/><path d="M37.12 49.087c-2.042-.416-3.59-1.126-4.646-2.129-1.026-1.023-1.661-2.281-1.908-3.776-.241-1.519-.177-3.186.193-5l.224-1.097 5.822 1.187-.085.416-.123.605c-.176.988-.267 1.823-.275 2.504.023.66.177 1.191.463 1.59.287.4.757.667 1.413.8.68.14 1.218.078 1.612-.182.4-.287.73-.744.989-1.374.26-.63.487-1.423.682-2.381.314-1.538.329-2.769.045-3.693-.28-.95-1.097-1.575-2.453-1.878a468.267 468.267 0 01-1.02-.208l.879-4.31.453.092.454.093c1.361.277 2.356.1 2.984-.534.653-.628 1.139-1.723 1.457-3.286.247-1.21.263-2.191.05-2.944-.215-.752-.8-1.226-1.758-1.421-.958-.196-1.665.054-2.122.748-.457.695-.819 1.632-1.085 2.811l-.14.68c-.045.228-.092.455-.138.681l-5.822-1.187.34-1.664c.364-1.79 1-3.235 1.907-4.336.913-1.127 2.04-1.894 3.384-2.303 1.343-.408 2.885-.435 4.624-.08 1.74.354 3.162.972 4.268 1.854 1.107.882 1.852 1.993 2.235 3.33.409 1.344.43 2.91.066 4.7-.365 1.79-1.047 3.2-2.044 4.23-.973 1.036-2.034 1.607-3.185 1.714a5.175 5.175 0 011.75 1.656c.46.698.755 1.572.882 2.622.133 1.024.052 2.255-.24 3.691-.376 1.84-.975 3.425-1.797 4.753-.817 1.304-1.913 2.236-3.287 2.795-1.375.56-3.057.637-5.048.231zm19.73 4.024c-1.84-.375-3.288-1.064-4.344-2.067a7.215 7.215 0 01-2.09-3.656c-.332-1.459-.321-3.058.034-4.797l2.798-13.724c.366-1.79.974-3.293 1.826-4.51.858-1.244 1.968-2.12 3.332-2.63 1.364-.509 2.991-.57 4.882-.185 1.865.38 3.313 1.07 4.343 2.067 1.056 1.003 1.735 2.244 2.037 3.723.307 1.454.278 3.076-.087 4.866l-2.799 13.724c-.354 1.739-.97 3.215-1.848 4.427a7.215 7.215 0 01-3.354 2.545c-1.364.51-2.941.582-4.73.217zm1.048-5.142c.68.139 1.216.025 1.606-.342.39-.367.694-.83.913-1.389.224-.584.388-1.128.49-1.633l2.753-13.497c.113-.554.181-1.144.204-1.77.047-.62-.036-1.175-.251-1.665-.21-.516-.668-.845-1.374-.99-.706-.143-1.269-.022-1.689.365-.39.367-.697.842-.92 1.427-.2.59-.356 1.161-.469 1.716l-2.753 13.497a10.387 10.387 0 00-.188 1.694c-.017.6.094 1.148.335 1.644.24.495.688.81 1.343.943zM73.806 37.971L79.71 26.79l1.336.272-5.89 11.185-1.35-.276zm-.331-5.648c-.91-.186-1.51-.573-1.797-1.162-.288-.589-.335-1.358-.141-2.307l.15-.734c.197-.97.536-1.654 1.015-2.056.48-.402 1.184-.508 2.114-.318.93.19 1.538.558 1.823 1.106.298.54.348 1.294.15 2.263l-.164.807c-.194.95-.537 1.634-1.03 2.053-.494.42-1.2.535-2.12.347zm.275-1.351c.255.052.455.021.6-.092.145-.113.263-.288.352-.524a5.74 5.74 0 00.232-.84l.14-.69c.1-.49.133-.875.1-1.157-.033-.292-.245-.478-.636-.558-.382-.078-.645.011-.789.267-.142.247-.263.614-.362 1.104l-.144.704a5.452 5.452 0 00-.112.85c-.01.252.028.459.118.62.09.16.257.266.501.316zm6.272 8.313c-.91-.186-1.51-.573-1.797-1.162-.278-.587-.32-1.36-.124-2.319l.147-.719c.197-.969.531-1.655 1-2.059.482-.411 1.188-.522 2.118-.333.94.192 1.552.562 1.838 1.11.286.547.33 1.305.132 2.274l-.161.793c-.196.959-.54 1.648-1.034 2.067-.493.42-1.2.535-2.12.348zm.278-1.365c.254.051.454.02.6-.092.155-.111.272-.286.351-.525.09-.237.166-.511.23-.825l.143-.704c.1-.49.133-.876.099-1.158-.032-.292-.244-.478-.636-.557-.381-.078-.644.01-.788.267-.144.256-.265.624-.363 1.103l-.144.705c-.065.323-.104.61-.115.863-.008.243.032.445.122.606.09.161.256.267.5.316zM44.002 64.543c-.842-.171-1.48-.465-1.916-.88-.435-.415-.7-.938-.796-1.569-.095-.63-.061-1.348.102-2.15l.907-4.448c.164-.803.412-1.466.743-1.99a2.58 2.58 0 011.34-1.102c.562-.202 1.263-.217 2.105-.045.861.175 1.505.465 1.933.868.437.405.705.918.802 1.54.11.613.082 1.321-.081 2.124l-.91 4.463c-.162.792-.416 1.46-.76 2a2.73 2.73 0 01-1.347 1.133c-.554.213-1.26.232-2.122.056zm.326-1.6c.362.074.642.05.84-.073.209-.12.37-.312.485-.574.114-.262.205-.555.27-.878l1.117-5.475c.068-.333.1-.638.095-.914a1.1 1.1 0 00-.227-.688c-.134-.19-.382-.323-.745-.397-.342-.07-.617-.044-.825.076a1.1 1.1 0 00-.479.545 4.233 4.233 0 00-.27.878l-1.117 5.475a5.217 5.217 0 00-.11.91c.003.287.077.526.221.719.145.192.393.324.745.396zm4.75 2.467l2.424-11.89 4.889.996-.306 1.498-2.715-.554-.707 3.464 2.217.452-.309 1.512-2.216-.452-1.105 5.417-2.173-.443zm6.063 1.237l2.425-11.891 4.89.997-.306 1.497-2.716-.554-.707 3.465 2.217.452-.308 1.512-2.217-.452-1.105 5.417-2.173-.443z" fill="#5A3DF1"/></svg>