<svg width="120" height="71" viewBox="0 0 120 71" fill="none" xmlns="http://www.w3.org/2000/svg"><path d="M3.326 12.007c.473 0 .91.124 1.308.373.399.225.698.573.897 1.047l5.493 12.556-.822.374 5.606-12.893c.423-.996 1.084-1.47 1.98-1.42.623 0 1.122.2 1.495.598.399.374.598.847.598 1.42 0 .175-.037.361-.112.56-.05.2-.112.387-.187.561L12.594 30.58c-.399.897-1.034 1.37-1.906 1.42a2.105 2.105 0 01-1.383-.262c-.423-.249-.747-.635-.971-1.158L1.383 15.183c-.05-.124-.112-.286-.187-.486-.05-.199-.075-.435-.075-.71 0-.448.2-.884.598-1.307.399-.449.934-.673 1.607-.673zm23.19 17.713c0 .648-.212 1.196-.636 1.645-.424.423-.96.635-1.607.635-.648 0-1.183-.212-1.607-.635-.424-.449-.635-.997-.635-1.645V14.286c0-.647.212-1.183.635-1.606.424-.449.96-.673 1.607-.673.648 0 1.183.224 1.607.673.424.423.635.959.635 1.606V29.72zm-2.28-20.142c-.847 0-1.445-.137-1.794-.411-.349-.274-.523-.76-.523-1.458V7c0-.722.186-1.208.56-1.457.399-.274.997-.411 1.794-.411.872 0 1.482.137 1.831.41.349.275.523.76.523 1.458v.71c0 .723-.186 1.221-.56 1.495-.374.25-.984.374-1.831.374zM32.246 32c-.649 0-1.184-.212-1.608-.635-.423-.449-.635-.997-.635-1.645V14.286c0-.647.212-1.183.635-1.606.424-.449.96-.673 1.607-.673.648 0 1.184.224 1.607.673.424.423.635.959.635 1.606V17.8l-.261-2.504a5.763 5.763 0 011.046-1.57c.449-.473.947-.859 1.495-1.158a6.346 6.346 0 011.756-.71 7.981 7.981 0 011.869-.224c.747 0 1.37.212 1.868.635.524.424.785.922.785 1.495 0 .822-.212 1.42-.635 1.794-.424.349-.884.523-1.383.523-.473 0-.91-.087-1.308-.261-.373-.175-.81-.262-1.308-.262-.448 0-.909.112-1.382.336-.449.2-.872.523-1.271.972-.374.448-.685 1.009-.934 1.682-.224.647-.337 1.42-.337 2.317v8.856c0 .648-.211 1.196-.635 1.645-.423.423-.96.635-1.607.635zM45.31 12.38h8.856c.598 0 1.097.2 1.495.598.399.399.598.897.598 1.495 0 .573-.2 1.06-.598 1.458-.398.373-.897.56-1.495.56H45.31c-.598 0-1.096-.2-1.495-.598-.399-.398-.598-.897-.598-1.495 0-.572.2-1.046.598-1.42.399-.398.897-.598 1.495-.598zm3.998-4.67c.648 0 1.171.223 1.57.672.423.423.635.959.635 1.607v16.63c0 .348.063.635.187.86.15.223.336.385.56.485.25.1.511.15.785.15.3 0 .573-.05.822-.15.25-.125.536-.187.86-.187.349 0 .66.162.934.486.3.324.449.772.449 1.345 0 .698-.386 1.27-1.159 1.72a4.637 4.637 0 01-2.429.672c-.523 0-1.108-.037-1.756-.112a5.337 5.337 0 01-1.794-.635c-.548-.35-1.009-.872-1.383-1.57-.373-.698-.56-1.657-.56-2.878V9.99c0-.648.211-1.184.635-1.607a2.237 2.237 0 011.644-.673zm24.784 4.297c.647 0 1.183.224 1.607.673.423.423.635.959.635 1.606v9.493c0 2.64-.735 4.733-2.205 6.278-1.47 1.544-3.588 2.317-6.353 2.317-2.765 0-4.883-.773-6.353-2.317-1.445-1.545-2.167-3.638-2.167-6.278v-9.493c0-.647.211-1.183.635-1.606.423-.449.96-.673 1.607-.673.648 0 1.183.224 1.607.673.423.423.635.959.635 1.606v9.493c0 1.52.336 2.653 1.009 3.4.673.723 1.682 1.084 3.027 1.084 1.37 0 2.392-.361 3.064-1.084.673-.747 1.01-1.88 1.01-3.4v-9.493c0-.647.211-1.183.635-1.606.423-.449.959-.673 1.607-.673zm22.344-.374c.648 0 1.183.212 1.607.635.423.424.635.972.635 1.645V29.72c0 .648-.212 1.196-.635 1.645-.424.423-.96.635-1.607.635-.648 0-1.183-.212-1.607-.635-.423-.449-.635-.997-.635-1.645v-1.83l.822.336c0 .323-.175.722-.523 1.195-.349.449-.822.897-1.42 1.346-.598.448-1.308.834-2.13 1.158-.798.3-1.67.449-2.616.449-1.72 0-3.276-.436-4.672-1.308-1.395-.897-2.504-2.118-3.326-3.663-.797-1.57-1.195-3.363-1.195-5.38 0-2.044.398-3.838 1.195-5.382.823-1.57 1.919-2.79 3.289-3.663 1.37-.896 2.89-1.345 4.56-1.345 1.07 0 2.055.162 2.951.486.897.324 1.67.735 2.317 1.233.673.498 1.184 1.01 1.533 1.532.373.499.56.922.56 1.27l-1.345.487v-2.728c0-.648.212-1.184.635-1.607.424-.449.96-.673 1.607-.673zm-7.549 16.63c1.096 0 2.056-.274 2.878-.822.822-.548 1.457-1.296 1.906-2.242.473-.947.71-2.006.71-3.177 0-1.196-.237-2.267-.71-3.214-.449-.947-1.084-1.694-1.906-2.242-.822-.548-1.782-.822-2.878-.822-1.071 0-2.018.274-2.84.822-.822.548-1.47 1.296-1.943 2.242-.449.947-.673 2.018-.673 3.214 0 1.171.224 2.23.673 3.177.473.946 1.12 1.694 1.943 2.242.822.548 1.769.822 2.84.822zm18.384 1.457c0 .648-.224 1.196-.673 1.645-.423.423-.959.635-1.607.635-.623 0-1.146-.212-1.569-.635-.424-.449-.636-.997-.636-1.645V6.625c0-.647.212-1.183.636-1.606a2.235 2.235 0 011.644-.673c.648 0 1.171.224 1.57.673.423.423.635.959.635 1.606V29.72zm-106 34.178c-.25-.349-.362-.797-.337-1.345.025-.548.349-1.021.972-1.42.399-.25.822-.349 1.27-.3.449.026.885.25 1.308.674.723.722 1.483 1.283 2.28 1.681.797.399 1.794.598 2.99.598.373-.025.785-.075 1.233-.15.448-.099.835-.298 1.158-.597.35-.324.524-.81.524-1.458 0-.548-.187-.984-.561-1.308-.374-.324-.872-.598-1.495-.822a21.667 21.667 0 00-2.018-.635 64.235 64.235 0 01-2.392-.748A10.573 10.573 0 014 57.023a5.296 5.296 0 01-1.645-1.756c-.423-.723-.635-1.632-.635-2.728 0-1.246.349-2.305 1.046-3.177.698-.872 1.595-1.544 2.691-2.018a8.943 8.943 0 013.513-.71c.772 0 1.582.1 2.429.299a8.658 8.658 0 012.43.897c.771.399 1.42.934 1.942 1.607.274.374.436.822.486 1.345.05.523-.187.997-.71 1.42-.374.3-.81.436-1.308.411-.498-.05-.91-.224-1.233-.523-.424-.548-.997-.984-1.72-1.308-.697-.324-1.506-.486-2.428-.486-.374 0-.785.05-1.233.15a2.182 2.182 0 00-1.122.56c-.323.274-.485.723-.485 1.346 0 .573.186 1.034.56 1.383.374.323.872.597 1.495.822.648.199 1.333.398 2.055.598.748.199 1.508.435 2.28.71a9.022 9.022 0 012.13 1.083 5.09 5.09 0 011.57 1.757c.398.697.598 1.594.598 2.69 0 1.271-.374 2.355-1.121 3.252A7.262 7.262 0 0112.78 66.7a9.18 9.18 0 01-3.438.673c-1.47 0-2.94-.25-4.41-.748-1.47-.523-2.69-1.432-3.662-2.728zm37.46-6.876c0 2.043-.46 3.85-1.382 5.419a9.654 9.654 0 01-3.662 3.625c-1.52.872-3.227 1.308-5.12 1.308-1.894 0-3.613-.436-5.157-1.308-1.52-.872-2.74-2.08-3.663-3.625-.896-1.57-1.345-3.376-1.345-5.419 0-2.043.448-3.837 1.345-5.381.922-1.57 2.143-2.79 3.663-3.663 1.544-.897 3.263-1.345 5.157-1.345 1.893 0 3.6.448 5.12 1.345 1.544.872 2.765 2.093 3.662 3.663.922 1.544 1.383 3.338 1.383 5.381zm-4.484 0c0-1.27-.261-2.367-.785-3.288-.498-.947-1.183-1.682-2.055-2.205-.847-.524-1.794-.785-2.84-.785a5.488 5.488 0 00-2.878.785c-.847.523-1.532 1.258-2.055 2.204-.498.922-.747 2.019-.747 3.29 0 1.245.249 2.341.747 3.288.523.922 1.208 1.644 2.055 2.167a5.488 5.488 0 002.878.785c1.046 0 1.993-.262 2.84-.785a5.555 5.555 0 002.055-2.167c.523-.947.785-2.043.785-3.289zm22.124-10.015c.648 0 1.184.224 1.607.672.424.424.636.96.636 1.607v9.492c0 2.641-.735 4.734-2.205 6.279-1.47 1.544-3.588 2.317-6.353 2.317-2.766 0-4.883-.773-6.353-2.317-1.445-1.545-2.168-3.638-2.168-6.279v-9.492c0-.647.212-1.183.636-1.607.423-.448.959-.672 1.607-.672.647 0 1.183.224 1.606.672.424.424.636.96.636 1.607v9.492c0 1.52.336 2.654 1.009 3.401.672.723 1.681 1.084 3.027 1.084 1.37 0 2.391-.361 3.064-1.084.673-.747 1.01-1.88 1.01-3.4v-9.493c0-.647.21-1.183.634-1.607.424-.448.96-.672 1.607-.672zM64.963 67c-.647 0-1.183-.212-1.607-.635-.423-.449-.635-.997-.635-1.645V41.625c0-.647.212-1.183.635-1.606.424-.449.96-.673 1.607-.673.648 0 1.184.224 1.607.673.424.423.636.959.636 1.606V64.72c0 .648-.212 1.196-.636 1.645-.423.423-.959.635-1.607.635zm11.884-19.993c.573 0 1.071.236 1.495.71.424.473.635.934.635 1.383 0 .597-.299 1.158-.897 1.681L66.832 61.133l-.187-5.157 8.558-8.26c.473-.473 1.021-.71 1.644-.71zm.56 19.956c-.647 0-1.195-.25-1.644-.748l-6.913-7.324 3.4-3.14 6.727 7.325c.474.498.71 1.059.71 1.682 0 .648-.261 1.183-.784 1.607-.499.398-.997.598-1.495.598z" fill="#fff"/><path d="M17.6 43.886L6 42.663c12.829-10.302 35.17-7.487 44.738-4.792 0 0-18.46-3.454-33.138 6.015z" fill="#FD7CCF"/></svg>