<svg width="150" height="596" viewBox="0 0 150 596" fill="none" xmlns="http://www.w3.org/2000/svg"><path d="M19.018-28.256C11.024-14.825-.895 11.383 15.383 8.758 35.73 5.477 46.97 1.501 48.815 22.21" stroke="#D4E74D" stroke-width="1.024" stroke-linecap="round"/><path d="M41.975 18.48l7.222 4.693 4.436-8.625" stroke="#D4E74D" stroke-width="1.024" stroke-linecap="round" stroke-linejoin="round"/><path d="M8.229 266.085a6.152 6.152 0 00-6.267 2.739 6.159 6.159 0 002.935 9.054 6.149 6.149 0 006.68-1.463 6.16 6.16 0 001.623-3.184l-6.057-1.085 1.086-6.061z" fill="#D4E74D"/><path d="M40.977 584l1.62 4.379L46.972 590l-4.377 1.621-1.62 4.379-1.619-4.379L34.98 590l4.377-1.621 1.62-4.379z" fill="#fff"/><path d="M138.466 514.846l.578 11.119 11.114.579-11.114.579-.578 11.12-.579-11.12-11.113-.579 11.113-.579.579-11.119z" fill="#FD7CCF"/><path d="M137.01 525.705a1.68 1.68 0 012.911 0c.647 1.12-.162 2.52-1.455 2.52a1.68 1.68 0 01-1.456-2.52z" fill="#FD7CCF"/><path d="M146.733 518.272l-7.449 8.272 7.449 8.272-8.267-7.453-8.268 7.453 7.449-8.272-7.449-8.272 8.268 7.453 8.267-7.453z" fill="#FD7CCF"/><path d="M138.031 524.921c1.249-.335 2.392.809 2.057 2.058-.334 1.25-1.896 1.669-2.81.754a1.68 1.68 0 01.753-2.812z" fill="#FD7CCF"/></svg>