<svg width="160" height="53" viewBox="0 0 160 53" fill="none" xmlns="http://www.w3.org/2000/svg"><path d="M175.018 0L0 3.477l7.45 22.509L.982 53 176 49.523l-8.41-17.959L175.018 0z" fill="#FD7CCF"/><path d="M23.25 41.93l1.211-29.343-5.338-.22.216-5.254 17.683.732-.217 5.253-5.254-.217-1.212 29.342-7.09-.293zm28.239 1.639c-2.534-.105-4.523-.644-5.966-1.616-1.443-.973-2.457-2.312-3.043-4.02-.556-1.734-.785-3.782-.687-6.146l.533-12.898c.097-2.364.494-4.372 1.19-6.026.724-1.653 1.845-2.89 3.362-3.712 1.517-.821 3.543-1.18 6.077-1.075 2.563.106 4.565.646 6.008 1.618 1.473.945 2.488 2.27 3.045 3.977.586 1.678.831 3.7.733 6.062l-.532 12.9c-.098 2.362-.51 4.385-1.235 6.066-.696 1.654-1.817 2.905-3.364 3.754-1.518.85-3.559 1.222-6.121 1.116zm.21-5.083c.91.038 1.588-.134 2.032-.514.444-.41.752-.953.923-1.63.172-.707.274-1.459.307-2.256l.676-16.358a10.89 10.89 0 00-.122-2.23c-.114-.689-.377-1.242-.787-1.658-.41-.445-1.07-.686-1.981-.724-.855-.035-1.504.152-1.949.561-.443.381-.75.91-.921 1.588-.17.678-.272 1.415-.305 2.212l-.676 16.358c-.033.797-.007 1.554.077 2.271.114.69.376 1.256.786 1.701.41.416 1.057.643 1.94.68zM69.88 43.86l1.43-34.595 8.456.35c2.933.121 5.195.6 6.786 1.436 1.62.808 2.74 2.038 3.356 3.69.617 1.622.874 3.687.77 6.192l-.52 12.6c-.106 2.563-.534 4.656-1.286 6.279-.752 1.623-1.955 2.8-3.611 3.53-1.627.703-3.878.994-6.754.875l-8.627-.357zm7.25-4.62l1.495.062c1.31.054 2.243-.107 2.8-.483.588-.403.97-1 1.144-1.792.177-.82.29-1.828.34-3.024l.589-14.265c.049-1.196-.011-2.154-.181-2.874-.14-.748-.488-1.304-1.043-1.67-.527-.363-1.417-.571-2.67-.623l-1.452-.06-1.022 24.73zm18.483 5.685l8.135-34.318 7.816.324 5.233 34.871-6.534-.27-.925-7.654-5.467-.227-1.638 7.548-6.62-.274zm9.077-11.56l4.143.17-1.516-14.052-2.627 13.881zm21.722 12.835l.567-13.71-5.886-21.165 6.62.274 3.213 12.326 3.963-12.03 6.406.266-7.525 20.61-.567 13.71-6.791-.281zm21.546-7.622l-.805-26.089 6.449.267-3.38 25.915-2.264-.093zm-2.316 8.418l.252-6.108 6.151.255-.253 6.107-6.15-.254z" fill="#fff"/></svg>