<svg width="116" height="90" viewBox="0 0 116 90" fill="none" xmlns="http://www.w3.org/2000/svg"><path d="M6.296 103.63L28.362-1.343l71.046 17.86 34.204 2.768-23.296 91.646-74.483-34.28L6.296 103.63z" fill="#000" fill-opacity=".5"/><path d="M3.91 88.015L29.633-16.122l70.378 20.334 34.087 3.961L107.61 98.95 34.371 62.085 3.91 88.016z" fill="#D4E74D"/><path d="M50.583 48.525c-2.723-.556-4.788-1.502-6.196-2.84-1.368-1.364-2.216-3.043-2.545-5.036-.322-2.027-.236-4.25.257-6.67l.299-1.463 7.766 1.584-.114.554-.164.807c-.234 1.318-.356 2.431-.366 3.34.03.881.236 1.588.618 2.121.381.534 1.01.89 1.883 1.068.908.185 1.625.103 2.151-.245.533-.381.973-.992 1.32-1.832.345-.84.649-1.898.91-3.176.418-2.05.437-3.692.059-4.925-.373-1.267-1.463-2.102-3.271-2.506l-.505-.102-.857-.175L53 23.28l.606.123.605.124c1.815.37 3.142.133 3.98-.712.87-.838 1.519-2.299 1.944-4.383.329-1.614.35-2.922.065-3.926-.286-1.004-1.067-1.636-2.345-1.896-1.277-.261-2.22.072-2.83.998-.609.926-1.091 2.176-1.447 3.75l-.185.907-.185.908-7.766-1.584.452-2.219c.487-2.387 1.336-4.315 2.546-5.784 1.217-1.503 2.721-2.526 4.513-3.071 1.792-.545 3.848-.581 6.167-.108 2.32.473 4.218 1.298 5.694 2.474 1.476 1.176 2.47 2.657 2.98 4.442.546 1.792.575 3.882.088 6.269s-1.396 4.267-2.726 5.642c-1.298 1.38-2.714 2.143-4.248 2.285a6.902 6.902 0 012.333 2.21c.616.93 1.008 2.096 1.178 3.496.176 1.367.07 3.008-.322 4.924-.5 2.454-1.299 4.568-2.396 6.34-1.09 1.739-2.551 2.981-4.384 3.728-1.833.747-4.078.85-6.734.308zM76.9 53.892c-2.454-.5-4.386-1.42-5.794-2.758-1.408-1.337-2.337-2.962-2.787-4.875-.444-1.947-.429-4.08.044-6.4l3.734-18.305c.486-2.387 1.298-4.392 2.435-6.016 1.143-1.658 2.625-2.827 4.444-3.506 1.82-.68 3.99-.762 6.511-.248 2.488.507 4.42 1.427 5.794 2.757 1.407 1.338 2.313 2.993 2.716 4.966.41 1.94.371 4.103-.115 6.49l-3.734 18.306c-.473 2.32-1.294 4.288-2.465 5.905-1.163 1.584-2.654 2.715-4.474 3.395-1.82.68-3.922.775-6.31.289zm1.398-6.859c.908.185 1.622.033 2.142-.456.52-.489.926-1.107 1.218-1.852.3-.78.517-1.506.654-2.178l3.672-18.003c.15-.74.241-1.527.271-2.36.064-.828-.048-1.569-.334-2.223-.28-.687-.891-1.127-1.832-1.319-.942-.192-1.693-.03-2.253.486-.52.49-.93 1.124-1.229 1.903a19.1 19.1 0 00-.624 2.29l-3.672 18.002c-.137.672-.22 1.426-.25 2.26-.024.8.125 1.531.446 2.192.32.66.917 1.08 1.791 1.258zM100.113 33.528l7.875-14.914 1.782.363-7.855 14.918-1.802-.367zm-.442-7.534c-1.214-.248-2.013-.764-2.396-1.55-.384-.785-.447-1.81-.189-3.077l.2-.98c.264-1.291.715-2.206 1.355-2.741.64-.536 1.579-.678 2.819-.425 1.24.253 2.051.745 2.433 1.475.397.72.463 1.727.2 3.019l-.22 1.077c-.258 1.266-.716 2.179-1.374 2.738-.658.56-1.601.714-2.828.464zm.368-1.802c.339.07.606.029.8-.122.194-.151.35-.384.469-.7a7.82 7.82 0 00.31-1.12l.187-.92c.133-.653.177-1.167.132-1.544-.043-.39-.326-.637-.848-.744-.509-.104-.86.015-1.052.357-.19.328-.35.819-.484 1.472l-.191.94a7.275 7.275 0 00-.15 1.132c-.014.337.039.613.158.827.12.215.342.356.669.422zm8.364 11.088c-1.214-.248-2.012-.764-2.396-1.55-.371-.782-.426-1.813-.165-3.092l.196-.96c.263-1.292.708-2.207 1.335-2.746.642-.549 1.583-.697 2.824-.444 1.253.256 2.07.749 2.451 1.48.382.73.44 1.741.177 3.033l-.216 1.058c-.261 1.279-.72 2.198-1.378 2.758-.658.559-1.6.713-2.828.463zm.372-1.82c.339.068.606.027.8-.123.207-.149.363-.382.469-.7.119-.316.221-.683.306-1.1l.192-.94c.133-.653.176-1.167.131-1.544-.043-.39-.326-.637-.848-.744-.509-.104-.86.015-1.052.357-.192.341-.353.832-.483 1.472l-.192.94c-.088.43-.139.814-.153 1.151-.012.324.042.593.161.808.12.215.343.355.669.422zM60.063 69.132c-1.122-.229-1.974-.62-2.555-1.174-.58-.553-.934-1.25-1.062-2.093-.127-.841-.082-1.798.137-2.868l1.21-5.933c.218-1.07.548-1.955.99-2.654.444-.711 1.04-1.202 1.788-1.47.749-.27 1.684-.29 2.807-.06 1.148.234 2.008.62 2.578 1.158.583.54.94 1.225 1.07 2.054.146.818.11 1.762-.108 2.833l-1.215 5.952c-.215 1.058-.553 1.948-1.013 2.67a3.642 3.642 0 01-1.797 1.51c-.738.284-1.681.31-2.83.075zm.435-2.134c.483.098.857.066 1.122-.098.277-.161.493-.416.645-.766.153-.35.274-.74.361-1.17l1.49-7.304c.09-.444.133-.85.126-1.218-.006-.369-.107-.675-.302-.919-.18-.254-.51-.43-.993-.529-.457-.093-.825-.059-1.102.102-.275.148-.488.39-.638.727a5.64 5.64 0 00-.361 1.17l-1.49 7.304c-.087.43-.136.835-.145 1.214.004.382.102.7.294.958.192.257.524.433.993.529zm6.335 3.29l3.234-15.86 6.521 1.33-.407 1.997-3.623-.74-.942 4.622 2.957.603-.412 2.017-2.957-.603-1.473 7.225-2.898-.59zm8.088 1.65l3.235-15.86 6.52 1.329-.407 1.997-3.622-.739-.943 4.622 2.957.603-.411 2.016-2.957-.603-1.474 7.226-2.898-.591z" fill="#5A3DF1"/></svg>