<svg width="158" height="77" viewBox="0 0 158 77" fill="none" xmlns="http://www.w3.org/2000/svg"><path d="M5.413 23.396l145.6-19.108-2.629 25.279L158 57.892 12.4 77l4.14-20.49L5.414 23.396z" fill="#000" fill-opacity=".5"/><path d="M0 19.108L145.601 0l-2.629 25.278 9.615 28.326-145.6 19.108 4.141-20.49L0 19.108z" fill="#D4E74D"/><path d="M38.212 62.259c-2.415.317-4.49.153-6.222-.493-1.733-.645-3.129-1.804-4.187-3.476-1.063-1.703-1.828-3.98-2.297-6.828l7.152-2.054c.247 1.65.564 2.966.951 3.95.419.98.896 1.66 1.43 2.043.567.378 1.2.521 1.9.43.89-.117 1.422-.494 1.597-1.132a4.44 4.44 0 00.18-1.963c-.206-1.59-.762-2.875-1.665-3.855-.908-1.013-2.086-1.99-3.534-2.931L29.8 43.478a19.513 19.513 0 01-4.266-3.708c-1.192-1.46-1.94-3.35-2.242-5.671-.427-3.274.217-5.897 1.933-7.868 1.71-2.003 4.235-3.223 7.572-3.661 2.066-.271 3.765-.139 5.095.398 1.363.533 2.437 1.33 3.221 2.39a10.447 10.447 0 011.801 3.401c.416 1.207.715 2.38.896 3.52l-7.224 1.87c-.181-1.14-.39-2.116-.624-2.925-.207-.846-.515-1.469-.923-1.868-.411-.43-.983-.598-1.714-.502-.794.104-1.339.515-1.633 1.233-.263.713-.35 1.403-.264 2.071.187 1.43.674 2.563 1.461 3.397.816.799 1.844 1.617 3.085 2.457l3.56 2.394a21.38 21.38 0 014.878 4.307c1.412 1.657 2.292 3.821 2.64 6.491.236 1.812.039 3.52-.593 5.122-.636 1.57-1.66 2.885-3.075 3.944-1.382 1.054-3.106 1.717-5.172 1.988zM53.96 59.61l2.26-39.58 9.727-1.276L78.18 56.432l-7.867 1.032-2.35-7.984-5.673.744-.273 8.329-8.057 1.057zm8.427-14.588l4.1-.538-4.013-14.799-.087 15.337zm27.026 9.936l-11.995-37.71 7.294-.957 7.566 25.681.444-26.732 7.724-1.014-2.022 39.55-9.011 1.182zm23.76-3.118l-5.034-38.623 17.355-2.278.758 5.817-8.82 1.158 1.249 9.584 6.722-.882.771 5.913-6.722.882 1.503 11.539 8.916-1.17.752 5.77-17.45 2.29z" fill="#5A3DF1"/></svg>