<svg width="371" height="23" viewBox="0 0 371 23" fill="none" xmlns="http://www.w3.org/2000/svg"><path d="M12.57-21.378C5.88-10.141-4.095 11.785 9.527 9.589 26.555 6.844 35.96 3.518 37.505 20.843" stroke="#D4E74D" stroke-width="1.063" stroke-linecap="round"/><path d="M31.78 17.723l6.044 3.926 3.713-7.216" stroke="#D4E74D" stroke-width="1.063" stroke-linecap="round" stroke-linejoin="round"/><path d="M365.869 9.92a5.21 5.21 0 00-6.13 5.232 5.218 5.218 0 003.309 4.754 5.213 5.213 0 007.033-3.935l-5.131-.919.919-5.132z" fill="#D4E74D"/><path d="M296.154-4l1.413 3.822 3.82 1.414-3.82 1.414-1.413 3.821-1.414-3.821-3.82-1.414 3.82-1.414L296.154-4z" fill="#fff"/></svg>