<svg width="189" height="57" viewBox="0 0 189 57" fill="none" xmlns="http://www.w3.org/2000/svg"><path d="M187.945 0L0 3.74l8 24.207L1.055 57 189 53.26l-9.031-19.313L187.945 0z" fill="#FD7CCF"/><path d="M25.045 44.078l1.299-31.48-5.728-.238.233-5.636 18.97.787-.233 5.636-5.636-.234-1.298 31.48-7.607-.315zm30.297 1.76c-2.719-.113-4.852-.69-6.4-1.734-1.548-1.043-2.637-2.48-3.265-4.312-.596-1.86-.842-4.059-.738-6.595l.571-13.838c.105-2.535.53-4.69 1.277-6.465.776-1.773 1.979-3.1 3.606-3.981 1.628-.881 3.801-1.266 6.52-1.153 2.75.114 4.898.693 6.446 1.736 1.58 1.014 2.669 2.436 3.267 4.266.629 1.801.891 3.97.787 6.505l-.57 13.838c-.106 2.536-.547 4.705-1.325 6.51-.746 1.774-1.95 3.116-3.609 4.026-1.629.912-3.818 1.311-6.567 1.197zm.225-5.453c.977.04 1.704-.143 2.18-.552.477-.44.807-1.022.99-1.749.184-.757.294-1.564.33-2.42l.723-17.549a11.692 11.692 0 00-.13-2.392c-.123-.74-.404-1.333-.845-1.78-.44-.477-1.148-.736-2.125-.776-.917-.038-1.613.163-2.09.602-.477.409-.806.976-.989 1.703a11.694 11.694 0 00-.327 2.373l-.724 17.55c-.035.856-.008 1.668.083 2.436.122.74.403 1.348.843 1.825.44.447 1.134.69 2.081.73zm19.507 5.766l1.531-37.116 9.073.376c3.146.13 5.573.644 7.28 1.541 1.74.868 2.94 2.188 3.6 3.96.663 1.74.94 3.955.828 6.643l-.557 13.518c-.114 2.749-.573 4.994-1.38 6.736-.806 1.741-2.097 3.004-3.874 3.787-1.745.754-4.16 1.067-7.245.939l-9.256-.384zm7.778-4.956l1.604.066c1.405.059 2.407-.114 3.005-.518.63-.433 1.038-1.074 1.227-1.923.189-.88.31-1.96.363-3.243l.631-15.305c.053-1.283-.012-2.31-.194-3.083-.15-.802-.524-1.4-1.12-1.791-.565-.39-1.52-.614-2.864-.67l-1.558-.064-1.094 26.53zm19.83 6.1l8.725-36.818 8.385.348 5.617 37.412-7.01-.29-.993-8.212-5.865-.243-1.757 8.098-7.102-.295zm9.737-12.402l4.445.184L115.237 20l-2.818 14.893zm23.306 13.772l.606-14.71-6.315-22.706 7.102.294 3.448 13.225 4.25-12.906 6.873.285-8.072 22.11-.607 14.71-7.285-.302zm23.114-8.176l-.865-27.99 6.919.287-3.625 27.803-2.429-.1zm-2.484 9.03l.27-6.552 6.599.274-.271 6.552-6.598-.273z" fill="#fff"/></svg>